Coordinates
version=1
nRows=38
nColumns=12
inDegrees=yes

Units are S.I. units (second, meters, Newtons, ...)
Angles are in degrees

endheader
time	SC_y	SC_z	SC_x	AC_y	AC_z	AC_x	GH_y	GH_z	GH_yy	EL_x	PS_y
       0.0              -15.83          35.88          22.75          36.57         -2.719          15.21         -95.57          39.66         -6.196          103.6          150.4
   0.03611              -15.83          35.88          22.76          36.58         -2.718          15.21         -95.55          39.66         -6.219          103.5          150.4
   0.07223              -15.83          35.88          22.76          36.58         -2.716          15.21         -95.53          39.66         -6.243          103.5          150.4
    0.1083              -15.83          35.88          22.76          36.58         -2.714          15.21         -95.51          39.66         -6.269          103.5          150.4
    0.1445              -15.83          35.87          22.77          36.59         -2.712          15.21         -95.49          39.66         -6.297          103.5          150.4
    0.1806              -15.83          35.87          22.78          36.59          -2.71          15.21         -95.47          39.66         -6.326          103.5          150.3
    0.2167              -15.83          35.87          22.78          36.59         -2.708          15.21         -95.45          39.66         -6.358          103.5          150.3
    0.2528              -15.83          35.86          22.79           36.6         -2.705           15.2         -95.42          39.66         -6.392          103.4          150.3
    0.2889              -15.83          35.86          22.79           36.6         -2.702           15.2         -95.39          39.66         -6.428          103.4          150.2
     0.325              -15.83          35.86           22.8           36.6           -2.7           15.2         -95.37          39.66         -6.467          103.4          150.2
    0.3611              -15.83          35.85          22.81          36.61         -2.697           15.2         -95.33          39.66         -6.508          103.4          150.2
    0.3973              -15.83          35.85          22.82          36.61         -2.693           15.2          -95.3          39.66         -6.553          103.4          150.1
    0.4334              -15.83          35.84          22.82          36.62          -2.69           15.2         -95.27          39.66         -6.601          103.3          150.1
    0.4695              -15.83          35.84          22.83          36.63         -2.686           15.2         -95.23          39.65         -6.653          103.3          150.1
    0.5056              -15.83          35.83          22.84          36.63         -2.682           15.2         -95.18          39.65          -6.71          103.3          150.0
    0.5417              -15.83          35.83          22.86          36.64         -2.677          15.19         -95.14          39.65         -6.771          103.2          150.0
    0.5778              -15.83          35.82          22.87          36.65         -2.673          15.19         -95.09          39.65         -6.837          103.2          149.9
    0.6139              -15.83          35.81          22.88          36.66         -2.667          15.19         -95.04          39.65          -6.91          103.1          149.8
    0.6501              -15.83           35.8          22.89          36.66         -2.662          15.19         -94.98          39.65         -6.989          103.1          149.8
    0.6862              -15.83           35.8          22.91          36.67         -2.655          15.19         -94.91          39.65         -7.075          103.1          149.7
    0.7223              -15.83          35.79          22.93          36.69         -2.648          15.18         -94.84          39.65          -7.17          103.0          149.6
    0.7584              -15.83          35.78          22.95           36.7         -2.641          15.18         -94.76          39.65         -7.275          102.9          149.5
    0.7945              -15.83          35.76          22.97          36.71         -2.632          15.18         -94.68          39.65          -7.39          102.9          149.4
    0.8306              -15.83          35.75          22.99          36.72         -2.623          15.17         -94.58          39.65         -7.518          102.8          149.3
    0.8667              -15.83          35.74          23.02          36.74         -2.613          15.17         -94.48          39.65         -7.661          102.7          149.2
    0.9028              -15.83          35.72          23.05          36.76         -2.601          15.16         -94.36          39.65         -7.819          102.6          149.1
     0.939              -15.83           35.7          23.08          36.78         -2.588          15.16         -94.23          39.65         -7.997          102.5          148.9
    0.9751              -15.83          35.68          23.11           36.8         -2.574          15.15         -94.08          39.65         -8.197          102.4          148.7
     1.011              -15.83          35.66          23.15          36.83         -2.557          15.15         -93.91          39.65         -8.424          102.3          148.5
     1.047              -15.83          35.63           23.2          36.86         -2.538          15.14         -93.72          39.64          -8.68          102.1          148.3
     1.083              -15.83           35.6          23.25          36.89         -2.517          15.13          -93.5          39.64         -8.973          102.0          148.1
      1.12              -15.83          35.57          23.32          36.93         -2.492          15.12         -93.25          39.64          -9.31          101.8          147.8
     1.156              -15.83          35.53          23.39          36.97         -2.464          15.11         -92.96          39.64         -9.698          101.6          147.5
     1.192              -15.83          35.48          23.47          37.02         -2.431           15.1         -92.63          39.64         -10.15          101.3          147.1
     1.228              -15.83          35.43          23.56          37.08         -2.393          15.08         -92.24          39.63         -10.68          101.0          146.6
     1.264              -15.83          35.37          23.68          37.16         -2.348          15.06         -91.77          39.63          -11.3          100.7          146.1
       1.3              -15.83          35.29          23.81          37.24         -2.294          15.04         -91.22          39.63         -12.04          100.2          145.5
     1.336              -15.83           35.2          23.97          37.34         -2.229          15.02         -90.57          39.62         -12.92          99.73          144.7
